<svg xmlns="http://www.w3.org/2000/svg" width="18" height="18" viewBox="0 0 18 18"><defs><style>.a{fill:#0e861c;}</style></defs><path class="a" d="M68.687,68.5H65.312A1.314,1.314,0,0,1,64,67.188V65.313A1.314,1.314,0,0,1,65.312,64h3.375A1.314,1.314,0,0,1,70,65.313v1.875A1.314,1.314,0,0,1,68.687,68.5Zm-3.375-3.375a.188.188,0,0,0-.187.187v1.875a.188.188,0,0,0,.187.187h3.375a.188.188,0,0,0,.188-.187V65.313a.188.188,0,0,0-.188-.187Zm0,0" transform="translate(-61.75 -61.75)"/><path class="a" d="M282.02,324.5h-3.375a1.314,1.314,0,0,1-1.313-1.312v-1.875A1.314,1.314,0,0,1,278.645,320h3.375a1.314,1.314,0,0,1,1.312,1.312v1.875A1.314,1.314,0,0,1,282.02,324.5Zm-3.375-3.375a.188.188,0,0,0-.188.187v1.875a.188.188,0,0,0,.188.187h3.375a.188.188,0,0,0,.187-.187v-1.875a.188.188,0,0,0-.187-.187Zm0,0" transform="translate(-267.582 -308.75)"/><path class="a" d="M282.02,71.5h-3.375a1.314,1.314,0,0,1-1.313-1.312V65.312A1.314,1.314,0,0,1,278.645,64h3.375a1.314,1.314,0,0,1,1.312,1.312v4.875A1.314,1.314,0,0,1,282.02,71.5Zm-3.375-6.375a.188.188,0,0,0-.188.187v4.875a.188.188,0,0,0,.188.187h3.375a.188.188,0,0,0,.187-.187V65.312a.188.188,0,0,0-.187-.187Zm0,0" transform="translate(-267.582 -61.75)"/><path class="a" d="M68.687,242.168H65.312A1.314,1.314,0,0,1,64,240.855V235.98a1.314,1.314,0,0,1,1.312-1.312h3.375A1.314,1.314,0,0,1,70,235.98v4.875A1.314,1.314,0,0,1,68.687,242.168Zm-3.375-6.375a.188.188,0,0,0-.187.187v4.875a.188.188,0,0,0,.187.187h3.375a.188.188,0,0,0,.188-.187V235.98a.188.188,0,0,0-.188-.187Zm0,0" transform="translate(-61.75 -226.418)"/><path class="a" d="M15.937,18H2.063A2.064,2.064,0,0,1,0,15.937V2.063A2.064,2.064,0,0,1,2.063,0H15.937A2.064,2.064,0,0,1,18,2.063V15.937A2.064,2.064,0,0,1,15.937,18ZM2.063,1.125a.939.939,0,0,0-.938.938V15.937a.939.939,0,0,0,.938.938H15.937a.939.939,0,0,0,.938-.938V2.063a.939.939,0,0,0-.938-.938Zm0,0"/></svg>