<svg xmlns="http://www.w3.org/2000/svg" width="19" height="19" viewBox="0 0 19 19"><defs><style>.a,.b{fill:#0e861c;}.a{opacity:0;}</style></defs><g transform="translate(0 0.428)"><g transform="translate(0 -0.428)"><rect class="a" width="19" height="19"/><path class="b" d="M12.773,7.546a2.318,2.318,0,0,1,2.318,2.318.773.773,0,0,0,1.546,0A3.864,3.864,0,0,0,12.773,6a.773.773,0,1,0,0,1.546Z" transform="translate(-2.726 -0.911)"/><path class="b" d="M12.773,3.546a5.41,5.41,0,0,1,5.41,5.41.773.773,0,0,0,1.546,0A6.955,6.955,0,0,0,12.773,2a.773.773,0,1,0,0,1.546Z" transform="translate(-2.726 -0.002)"/><path class="b" d="M17.263,12.75a.773.773,0,0,0-.556-.5L12.07,11.189a.773.773,0,0,0-.711.2c-.108.1-.116.108-.618,1.067A7.659,7.659,0,0,1,6.977,8.677c.981-.495.989-.495,1.09-.611a.773.773,0,0,0,.2-.711L7.209,2.773a.773.773,0,0,0-.5-.556,2.929,2.929,0,0,0-.556-.139A3.045,3.045,0,0,0,5.555,2,3.555,3.555,0,0,0,2,5.555a11.917,11.917,0,0,0,11.9,11.9A3.555,3.555,0,0,0,17.457,13.9a3.686,3.686,0,0,0-.046-.587A3.354,3.354,0,0,0,17.263,12.75ZM13.9,15.911A10.364,10.364,0,0,1,3.546,5.555,2.017,2.017,0,0,1,5.555,3.546H5.81l.827,3.586-.417.216c-.665.348-1.19.626-.912,1.229a9.158,9.158,0,0,0,5.549,5.572c.649.263.9-.224,1.252-.9l.224-.425,3.578.819V13.9A2.017,2.017,0,0,1,13.9,15.911Z" transform="translate(-0.454 -0.002)"/></g></g></svg>