<svg xmlns="http://www.w3.org/2000/svg" width="26" height="26" viewBox="0 0 26 26"><defs><style>.a,.b{fill:#0e861c;}.a{opacity:0;}</style></defs><g transform="translate(0)"><rect class="a" width="26" height="26" transform="translate(0)"/><path class="b" d="M8.684,22.226a2.275,2.275,0,0,1-1.365-.465L5.226,20.2a2.4,2.4,0,0,1-.5-3.256,2.084,2.084,0,0,0,.233-1.881L4.9,14.9A1.851,1.851,0,0,0,3.77,13.671H3.608a2.367,2.367,0,0,1-1.5-2.973L2.94,8.068A2.2,2.2,0,0,1,4.073,6.642a2.164,2.164,0,0,1,1.7-.121,1.951,1.951,0,0,0,1.8-.293l.131-.1A1.962,1.962,0,0,0,8.441,4.6V4.356A2.346,2.346,0,0,1,10.757,2h2.579a2.285,2.285,0,0,1,1.618.678,2.4,2.4,0,0,1,.688,1.7V4.66a1.78,1.78,0,0,0,.7,1.446l.111.081a1.759,1.759,0,0,0,1.608.263l.344-.111a2.285,2.285,0,0,1,2.912,1.527l.8,2.549a2.387,2.387,0,0,1-1.476,2.963l-.2.071a1.911,1.911,0,0,0-1.244,1.294,2.023,2.023,0,0,0,.253,1.669l.263.384a2.407,2.407,0,0,1-.506,3.267L17.168,21.63a2.265,2.265,0,0,1-3.256-.536l-.121-.172a1.77,1.77,0,0,0-1.517-.789,1.82,1.82,0,0,0-1.446.779l-.233.334a2.275,2.275,0,0,1-1.517.981A2.022,2.022,0,0,1,8.684,22.226Zm-4.257-10.5a3.873,3.873,0,0,1,2.407,2.528v.121a4.046,4.046,0,0,1-.465,3.661.384.384,0,0,0,0,.516L8.542,20.2a.253.253,0,0,0,.374-.071l.233-.334a3.812,3.812,0,0,1,6.269,0l.121.182a.3.3,0,0,0,.182.121.253.253,0,0,0,.192-.051L18,18.474a.364.364,0,0,0,.071-.5l-.263-.384a4.046,4.046,0,0,1-.536-3.459,3.964,3.964,0,0,1,2.518-2.64l.2-.071a.344.344,0,0,0,.192-.445l-.789-2.518a.354.354,0,0,0-.2-.192.212.212,0,0,0-.192,0l-.344.111A3.781,3.781,0,0,1,15.186,7.8l-.04-.091A3.8,3.8,0,0,1,13.639,4.68V4.366a.374.374,0,0,0-.1-.263.313.313,0,0,0-.212-.081H10.757a.313.313,0,0,0-.293.334v.253A3.945,3.945,0,0,1,8.926,7.734l-.131.1a3.953,3.953,0,0,1-3.671.6.222.222,0,0,0-.142,0,.283.283,0,0,0-.121.152l-.839,2.64a.364.364,0,0,0,.222.455Z" transform="translate(0.887 0.889)"/><path class="b" d="M13.556,18.611a5.056,5.056,0,1,1,5.056-5.056,5.056,5.056,0,0,1-5.056,5.056Zm0-7.222a2.167,2.167,0,1,0,2.167,2.167A2.167,2.167,0,0,0,13.556,11.389Z" transform="translate(-0.556 -0.556)"/></g></svg>