<svg xmlns="http://www.w3.org/2000/svg" width="18.68" height="20.378" viewBox="0 0 18.68 20.378"><defs><style>.a{fill:#0e861c;}</style></defs><path class="a" d="M136.516,419.821a3.188,3.188,0,0,1-3.184-3.184.637.637,0,0,1,1.274,0,1.91,1.91,0,1,0,3.821,0,.637.637,0,0,1,1.274,0A3.188,3.188,0,0,1,136.516,419.821Zm0,0" transform="translate(-128.025 -399.443)"/><path class="a" d="M15.5,79.284H1.486A1.486,1.486,0,0,1,.52,76.669a.587.587,0,0,1,.068-.051,5.707,5.707,0,0,0,1.96-4.3V69.944A5.951,5.951,0,0,1,8.491,64a2.558,2.558,0,0,1,.419.025A.637.637,0,1,1,8.7,65.282a1.336,1.336,0,0,0-.21-.008,4.676,4.676,0,0,0-4.67,4.67v2.369a6.983,6.983,0,0,1-2.465,5.325c-.013.01-.024.02-.037.029a.21.21,0,0,0-.045.132.215.215,0,0,0,.212.212H15.5a.215.215,0,0,0,.212-.212.2.2,0,0,0-.046-.132l-.037-.029a6.982,6.982,0,0,1-2.465-5.325v-.925a.637.637,0,0,1,1.274,0v.925A5.709,5.709,0,0,0,16.4,76.62a.618.618,0,0,1,.065.049,1.486,1.486,0,0,1-.966,2.614Zm0,0" transform="translate(0 -61.453)"/><path class="a" d="M260.246,8.491a4.245,4.245,0,1,1,4.245-4.245A4.25,4.25,0,0,1,260.246,8.491Zm0-7.217a2.972,2.972,0,1,0,2.972,2.972,2.975,2.975,0,0,0-2.972-2.972Zm0,0" transform="translate(-245.811)"/></svg>