<svg xmlns="http://www.w3.org/2000/svg" width="18" height="18" viewBox="0 0 18 18"><defs><style>.a{fill:#0e861c;}</style></defs><g transform="translate(0 -0.001)"><path class="a" d="M4.354,16.716a8.934,8.934,0,0,0,4.615,1.278A9.046,9.046,0,0,0,18,9a9,9,0,1,0-16.716,4.65L0,18ZM1.061,9a7.9,7.9,0,1,1,3.654,6.7l-.2-.129-2.953.871.871-2.953-.13-.2A7.941,7.941,0,0,1,1.061,9Zm0,0"/><path class="a" d="M121.264,97.2a8.831,8.831,0,0,0,7.083,7.083c1.164.222,2.871.255,3.706-.58l.465-.465a1.243,1.243,0,0,0,0-1.759l-1.86-1.86a1.244,1.244,0,0,0-1.759,0l-.465.465a.828.828,0,0,1-1.107,0l-1.856-1.934-.008-.009a.731.731,0,0,1,0-1.032l.465-.465a1.243,1.243,0,0,0,0-1.759l-1.861-1.861a1.245,1.245,0,0,0-1.759,0l-.465.465h0c-.666.666-.888,2.086-.58,3.706Zm1.408-2.878c.488-.477.462-.486.516-.486a.072.072,0,0,1,.051.021c1.96,1.971,1.882,1.855,1.882,1.912a.07.07,0,0,1-.021.051l-.465.465a1.9,1.9,0,0,0,0,2.684l1.857,1.935.009.009a2,2,0,0,0,2.767,0l.465-.465a.072.072,0,0,1,.1,0c1.96,1.971,1.882,1.855,1.882,1.911a.07.07,0,0,1-.021.051l-.465.465a3.465,3.465,0,0,1-2.658.257,7.66,7.66,0,0,1-6.151-6.151,3.465,3.465,0,0,1,.257-2.658Zm0,0" transform="translate(-117.543 -89.923)"/></g></svg>