<svg xmlns="http://www.w3.org/2000/svg" width="18" height="19.18" viewBox="0 0 18 19.18"><defs><style>.a{fill:#0e861c;}</style></defs><g transform="translate(-12.838)"><g transform="translate(10.838)"><path class="a" d="M19.985.646V.154a.154.154,0,1,0-.309,0V.646A9,9,0,0,0,12.266,4.8a.148.148,0,0,0-.075.122,8.921,8.921,0,0,0-1.334,4.588.2.2,0,0,0-.019.075.156.156,0,0,0,.014.07,9.007,9.007,0,0,0,8.824,8.965v.4a.154.154,0,0,0,.309,0v-.4a8.989,8.989,0,0,0,0-17.977Zm-4.33,8.792h-2.7A10.388,10.388,0,0,1,13.97,5.093h2.261A17.15,17.15,0,0,0,15.655,9.438Zm0,.3a17.5,17.5,0,0,0,.548,4.344h-2.27a10.332,10.332,0,0,1-.978-4.344h2.7ZM14.129,4.784a7.048,7.048,0,0,1,4.377-3.67,7.06,7.06,0,0,0-2.186,3.67Zm2.6-3.258a8.019,8.019,0,0,0-2.945,3.258H12.645A8.738,8.738,0,0,1,16.732,1.526ZM12.448,5.093h1.189a10.627,10.627,0,0,0-.983,4.344H11.166A8.55,8.55,0,0,1,12.448,5.093ZM11.161,9.742H12.65a10.737,10.737,0,0,0,.941,4.344h-1.2A8.7,8.7,0,0,1,11.161,9.742Zm1.423,4.649H13.74a8.112,8.112,0,0,0,2.991,3.352A8.754,8.754,0,0,1,12.584,14.391Zm1.5,0h2.2A7.092,7.092,0,0,0,18.5,18.15,7.125,7.125,0,0,1,14.087,14.391Zm5.59,3.918c-1.283-.126-2.406-1.653-3.076-3.918h3.076Zm0-4.223h-3.16a17.343,17.343,0,0,1-.552-4.344h3.712Zm0-4.649H15.964a17.309,17.309,0,0,1,.571-4.344h3.141Zm0-4.653H16.624C17.294,2.57,18.4,1.077,19.676.955Zm8.853,4.649H27.04a10.72,10.72,0,0,0-.983-4.344h1.189A8.67,8.67,0,0,1,28.529,9.433Zm-4.494.3h2.7a10.3,10.3,0,0,1-.978,4.344H23.482A17.458,17.458,0,0,0,24.035,9.737Zm0-.3a17.177,17.177,0,0,0-.576-4.344h2.256a10.318,10.318,0,0,1,1.021,4.344Zm3.015-4.649H25.9a8.019,8.019,0,0,0-2.945-3.258A8.738,8.738,0,0,1,27.045,4.784Zm-1.489,0H23.37a7.06,7.06,0,0,0-2.186-3.67A7.066,7.066,0,0,1,25.556,4.784ZM19.981.955c1.278.1,2.4,1.6,3.08,3.829h-3.08Zm0,4.134H23.15a17.244,17.244,0,0,1,.576,4.344H19.981V5.089Zm0,8.993V9.737h3.745a17.342,17.342,0,0,1-.552,4.344Zm0,.309h3.1c-.674,2.285-1.812,3.82-3.1,3.923Zm3.413,0h2.21a7.1,7.1,0,0,1-4.419,3.764A7.167,7.167,0,0,0,23.4,14.391Zm-.459,3.357a8.126,8.126,0,0,0,3.005-3.357h1.161A8.734,8.734,0,0,1,22.939,17.747ZM27.3,14.086H26.1a10.737,10.737,0,0,0,.941-4.344h1.489A8.622,8.622,0,0,1,27.3,14.086Z" transform="translate(-8.838 0)"/></g></g></svg>